<svg width="34" height="34" viewBox="0 0 34 34" fill="none" xmlns="http://www.w3.org/2000/svg">
<path d="M32.0012 26.0742C30.7797 24.8435 27.8212 23.0475 26.3858 22.3237C24.5166 21.3822 24.3628 21.3053 22.8935 22.3968C21.9135 23.1252 21.262 23.7759 20.1151 23.5313C18.9682 23.2867 16.4759 21.9076 14.2936 19.7324C12.1113 17.5571 10.652 14.9927 10.4066 13.8497C10.1613 12.7067 10.8228 12.0629 11.5443 11.0807C12.5613 9.69615 12.4843 9.4654 11.6151 7.5963C10.9374 6.14256 9.08896 3.21199 7.85358 1.99669C6.53205 0.691402 6.53205 0.922155 5.68051 1.27598C4.98726 1.56764 4.32218 1.92217 3.6936 2.33513C2.46283 3.15277 1.77976 3.83195 1.30207 4.85265C0.824375 5.87334 0.609761 8.26625 3.07667 12.7475C5.54359 17.2287 7.27435 19.5201 10.8566 23.0921C14.4389 26.6642 17.1935 28.5848 21.2205 30.8431C26.202 33.6329 28.1127 33.0891 29.1366 32.6122C30.1604 32.1353 30.8427 31.4585 31.662 30.2278C32.076 29.6003 32.4314 28.936 32.7235 28.2433C33.0781 27.3949 33.3089 27.3949 32.0012 26.0742Z" fill="white" fill-opacity="0.92" stroke="#CDA274" stroke-width="2" stroke-miterlimit="10"/>
</svg>
