<svg width="362" height="100" viewBox="0 0 362 100" fill="none" xmlns="http://www.w3.org/2000/svg">
<path fill-rule="evenodd" clip-rule="evenodd" d="M245 20H215V80H243V27C243 25.8955 243.896 25 245 25C246.104 25 247 25.8955 247 27V80H275V50C275 33.4314 261.568 20 245 20Z" fill="black"/>
<path fill-rule="evenodd" clip-rule="evenodd" d="M181 80C197.568 80 211 66.5686 211 50C211 33.4314 197.568 20 181 20C164.432 20 151 33.4314 151 50C151 66.5686 164.432 80 181 80ZM181 25C179.896 25 179 25.8955 179 27V73C179 74.1045 179.896 75 181 75C182.104 75 183 74.1045 183 73V27C183 25.8955 182.104 25 181 25Z" fill="black"/>
<path fill-rule="evenodd" clip-rule="evenodd" d="M147 20.0657C131.364 21.0948 119 34.1036 119 50.0001V80.0001H147V20.0657Z" fill="black"/>
<path fill-rule="evenodd" clip-rule="evenodd" d="M115 20.0657V79.9346C99.3639 78.9051 87 65.8966 87 50.0001C87 34.1036 99.3639 21.0948 115 20.0657Z" fill="black"/>
</svg>
